<svg xmlns="http://www.w3.org/2000/svg" viewBox="0 0 64 64" role="img" aria-label="Biotek Farmasi Indonesia">
  <rect width="64" height="64" rx="15" fill="#080d0b"/>
  <path d="M17 15h15.2c9.1 0 14.8 4.7 14.8 11.6 0 4.3-2.4 7.3-6.1 8.8 4.7 1.4 7.5 4.9 7.5 9.7C48.4 53 41.9 57 32.1 57H17V15Zm14.5 16.7c4.3 0 6.7-1.7 6.7-4.7 0-3.1-2.5-4.7-6.7-4.7h-5.6v9.4h5.6Zm.7 17.9c4.9 0 7.5-1.8 7.5-5.1 0-3.2-2.6-5.1-7.5-5.1h-6.3v10.2h6.3Z" fill="#edf4df"/>
  <path d="M40.6 10.4c6.9.1 11.1 3.5 11.8 9.7-6.6.2-11.1-3.4-11.8-9.7Z" fill="#a8cf62"/>
  <path d="M39.8 11.2c.9 5 4 8 9.1 8.8" fill="none" stroke="#080d0b" stroke-linecap="round" stroke-width="1.8"/>
</svg>
